<svg width="24" height="24" viewBox="0 0 24 24" fill="none" xmlns="http://www.w3.org/2000/svg">
    <path d="M12 2.162C15.204 2.162 15.584 2.174 16.849 2.232C18.157 2.292 19.504 2.6 20.425 3.521C21.346 4.442 21.654 5.79 21.715 7.097C21.772 8.363 21.785 8.743 21.785 11.947C21.785 15.151 21.772 15.531 21.715 16.796C21.654 18.103 21.346 19.451 20.425 20.372C19.504 21.293 18.157 21.601 16.849 21.661C15.584 21.719 15.204 21.732 12 21.732C8.796 21.732 8.416 21.719 7.151 21.661C5.843 21.601 4.496 21.293 3.575 20.372C2.654 19.451 2.346 18.103 2.285 16.796C2.228 15.531 2.215 15.151 2.215 11.947C2.215 8.743 2.228 8.363 2.285 7.097C2.346 5.79 2.654 4.442 3.575 3.521C4.496 2.6 5.843 2.292 7.151 2.232C8.416 2.174 8.796 2.162 12 2.162ZM12 0C8.741 0 8.332 0.014 7.052 0.072C5.197 0.158 3.355 0.673 2.021 2.006C0.688 3.339 0.172 5.182 0.087 7.037C0.029 8.317 0.015 8.726 0.015 11.985C0.015 15.243 0.029 15.653 0.087 16.933C0.172 18.788 0.688 20.63 2.021 21.964C3.355 23.297 5.197 23.812 7.052 23.898C8.332 23.955 8.741 23.97 12 23.97C15.259 23.97 15.668 23.955 16.948 23.898C18.803 23.812 20.645 23.297 21.979 21.964C23.312 20.63 23.828 18.788 23.913 16.933C23.971 15.653 23.985 15.243 23.985 11.985C23.985 8.726 23.971 8.317 23.913 7.037C23.828 5.182 23.312 3.339 21.979 2.006C20.645 0.673 18.803 0.158 16.948 0.072C15.668 0.014 15.259 0 12 0Z" fill="#8DA0AD"/>
    <path d="M12 5.838C8.597 5.838 5.838 8.597 5.838 12C5.838 15.403 8.597 18.162 12 18.162C15.403 18.162 18.162 15.403 18.162 12C18.162 8.597 15.403 5.838 12 5.838ZM12 16C9.791 16 8 14.209 8 12C8 9.791 9.791 8 12 8C14.209 8 16 9.791 16 12C16 14.209 14.209 16 12 16Z" fill="#8DA0AD"/>
    <path d="M18.406 7.037C19.2014 7.037 19.844 6.39359 19.844 5.598C19.844 4.8024 19.2014 4.159 18.406 4.159C17.6106 4.159 16.968 4.8024 16.968 5.598C16.968 6.39359 17.6106 7.037 18.406 7.037Z" fill="#8DA0AD"/>
</svg> 