<svg width="24" height="24" viewBox="0 0 24 24" fill="none" xmlns="http://www.w3.org/2000/svg">
    <path d="M21.5331 6.58055C20.8753 6.85448 20.1722 7.03618 19.4443 7.11704C20.1967 6.67134 20.765 5.96159 21.0359 5.12259C20.3302 5.53641 19.5521 5.83339 18.7276 5.99677C18.0697 5.29332 17.1285 4.84961 16.0916 4.84961C14.1073 4.84961 12.4979 6.45677 12.4979 8.43999C12.4979 8.71392 12.5272 8.979 12.5857 9.23138C9.56695 9.07992 6.89136 7.65955 5.11241 5.5144C4.81308 6.02622 4.64317 6.67134 4.64317 7.35749C4.64317 8.65622 5.29904 9.80182 6.29028 10.4788C5.69971 10.4606 5.1358 10.2959 4.63602 10.036C4.63602 10.054 4.63602 10.072 4.63602 10.0912C4.63602 11.8475 5.88273 13.3151 7.53582 13.6402C7.24598 13.7234 6.93935 13.7662 6.62078 13.7662C6.39931 13.7662 6.18495 13.7446 5.97648 13.7068C6.41213 15.151 7.75001 16.2 9.33486 16.2288C8.09526 17.2016 6.52256 17.7927 4.81663 17.7927C4.53753 17.7927 4.26267 17.7759 3.99121 17.7434C5.59456 18.7715 7.51081 19.3817 9.56695 19.3817C16.0819 19.3817 19.6576 13.8277 19.6576 9.012C19.6576 8.85684 19.6539 8.70348 19.6467 8.55012C20.3608 8.0408 20.9936 7.41095 21.5331 6.68855V6.58055Z" fill="#8DA0AD"/>
</svg> 